/* XPM */
static char *_f1a04e7482e4352bf261ec24c9e0c99jIqGYJtfMg4MWmqL[] = {
/* columns rows colors chars-per-pixel */
"97 97 6 1 ",
"  c None",
". c #282C3C",
"X c #485262",
"o c #5E718E",
"O c #88A3BC",
"+ c #B8CCD8",
/* pixels */
"................................................................................................ ",
".................................................................................................",
".................................................................................................",
".................................................................................................",
"....o.o.o.o.o.o.o.o.o.o.o.o.o.o..o.o.o.o.o.o.o.o.o.o.o.o.o.o.o...o.o.o.o.o.o.o.o.o.o.o.o.o.o.....",
"...o.o.o.o.o.o.o.o.o.o.o.o.o.o....o.o.o.o.o.o.o.o.o.o.o.o.o.o.o...o.o.o.o.o.o.o.o.o.o.o.o.o.o....",
"....o.o.o.o.o.o.o.o.o.o.o.o.o.o..o.o.o.o.o.o.o.o.o.o.o.o.o.o.o...o.o.o.o.o.o.o.o.o.o.o.o.o.o.....",
"...o.oooooooooooooooooooooooooO..OooooooooooooooooooooooooooooO..Oooooooooooooooooooooooooo.o....",
"....o.ooooooooooooooooooooooooO..OooooooooooooooooooooooooooooO..Ooooooooooooooooooooooooo.o.....",
"...o.oooooooooooooooooooooooooO..OooooooooooooooooooooooooooooO..Oooooooooooooooooooooooooo.o....",
"....o.ooooooooooooooooooooooooO..OooooooooooooooooooooooooooooO..Ooooooooooooooooooooooooo.o.....",
"...o.oooooooooooooooooooooooooO..OooooooooooooooooooooooooooooO..Oooooooooooooooooooooooooo.o....",
"....o.ooooooooooooooooo..oooooO..OooooooooooooooooooooooooooooO..Ooooooooooooooooooooooooo.o.....",
"...o.oooooooooooooooo.XXX.ooooO..Ooooooooooooooooooo......ooooO..Oooooooooooooooooooooooooo.o....",
"....o.oooo...ooooooo.XXXXXooooO..Oooooooooooooooooo.XXXXXXooooO..Ooooooooooooooooooooooooo.o.....",
"...o.oooo.XXX.ooooo.XXXXOOooooO..Oooooooooooooooo..XXXXXXOooooO..Ooooooooooooo......ooooooo.o....",
"....o.oooXXXXX.ooooXXXOOooooooO..OoooooooooooooooXXXXXXOOoooooO..OooooooooooooXXXXXXoooooo.o.....",
"...o.ooooXXXXXXooooOOOooooooooO..OoooooooooooooooXXXXOOoooooooO..OooooooooooooXXXXXOooooooo.o....",
"....o.oo.XXXXXXoooooooooooooooO..OoooooooooooooooOOOOoooooooooO..OooooooooooooOOOOOooooooo.o.....",
"...o.oooXXXXXXXoooooooooooooooO..Oooo..oooooooooooooooooooooooO..Oooooooooooooooooooooooooo.o....",
"....o.ooOXXXXXXoooooooooooooooO..Ooo.XX...ooooooooooooooooooooO..Oooo.....oooooooooooooooo.o.....",
"...o.ooo.XXXXXOoooooooooooooooO..OooOXXXXX.oooooooooooooooooooO..OoooXXXXX.oooooooooooooooo.o....",
"....o.ooXXXXXOooooooooooooooooO..OoooOXXXXX.ooooooooooooooooooO..OoooXXXXXX.oooooooooooooo.o.....",
"...o.oooOOOOOoooooooooooooooooO..OooooOOOXXXooooooooooooooooooO..OoooXXXXXXX.oooooooooooooo.o....",
"....o.ooooooooooooooooooooooooO..OoooooooOOOooooooooooooooooooO..OoooOXXXXXXX.oooooooooooo.o.....",
"...o.oooooooooooooooooooooooooO..OooooooooooooooooooooooooooooO..OooooOXXXXXXXooooooooooooo.o....",
"....o.ooooooooooooooooooooooooO..OooooooooooooooooooooooooooooO..OoooooOOOXXXXoooooooooooo.o.....",
"...o.oooooooooooooooooooooo+ooO..Ooo+oooooooooooooooooooooo.ooO..Ooo+oooooOOOOooooooooooooo.o....",
"....o.oooooooooooooooooooo+++oO..Oo+++oooooooooooooooooooo...oO..Oo+++oooooooooooooooooooo.o.....",
"...o.ooooooooooooooooooooo.+.oO..Oo.+.ooooooooooooooooooooo.ooO..Oo.+.ooooooooooooooooooooo.o....",
"....o.ooooooooooooooooooooo.ooO..Ooo.oooooooooooooooooooooooooO..Ooo.ooooooooooooooooooooo.o.....",
"...o.oOOOOOOOOOOOOOOOOOOOOOOOOO..OOOOOOOOOOOOOOOOOOOOOOOOOOOOOO..OOOOOOOOOOOOOOOOOOOOOOOOOo.o....",
".................................................................................................",
".................................................................................................",
"....o.OOOOOOOOOOOOOOOOOOOOOOOOO..OOOOOOOOOOOOOOOOOOOOOOOOOOOOOO..OOOOOOOOOOOOOOOOOOOOOOOOO.o.....",
"...o.oooooooooooooooooooooooooO..OooooooooooooooooooooooooooooO..Oooooooooooooooooooooooooo.o....",
"....o.ooooooooooooooooooooo+ooO..Ooo+oooooooooooooooooooooo.ooO..Ooo+ooooooooooooooooooooo.o.....",
"...o.ooooooooooooooooooooo+++oO..Oo+++oooooooooooooooooooo...oO..Oo+++ooooooooooooooooooooo.o....",
"....o.oooooooo...ooooooooo.+.oO..Oo.+.ooooooooooooooooooooo.ooO..Oo.+.oooooooooooooooooooo.o.....",
"...o.ooooooo..XXX.ooooooooo.ooO..Ooo.oooooooooooooooooooooooooO..Ooo.oooooooooooooooooooooo.o....",
"....o.ooooo.XXXXXXooooooooooooO..OooooooooooooooooooooooooooooO..Oooooooooooooooooooo.oooo.o.....",
"...o.ooooo.XXXXXXXooooooooooooO..OooooooooooooooooooooooooooooO..Oooooo..ooooooooooo.X.oooo.o....",
"....o.ooo.XXXXXXXXooooooooooooO..OooooooooooooooooooooooooooooO..Ooooo.XX..oooooooooXXXooo.o.....",
"...o.ooo.XXXXXXXXXooooooooooooO..OooooooooooooooooooooooooooooO..Oooo.XXXXXoooooooo.XXOoooo.o....",
"....o.ooXXXXXXXXXXooooooooooooO..Oooo.ooooooooo...ooooooooooooO..OoooXXXXXXooooooo.XXOoooo.o.....",
"...o.oooXXXXXXXXXOooooooooooooO..OoooX.ooooooo.XXXoooo...oooooO..Ooo.XXXXXOoooooooXXXoooooo.o....",
"....o.o.XXXXXXOOOoooooooooooooO..OoooXX.ooooo.XXXOooo.XXX.ooooO..OooXXOOXOooooooooOOOooooo.o.....",
"...o.ooXXXXXXXooooooooooooooooO..OoooXXXooo..XXXOooooOXXXX.oooO..OooXXooOoooooooooooooooooo.o....",
"....o.oXXXXXXOooooooooooooooooO..OoooOXX.ooXXXXXooooooOXXXX.ooO..OooOOoooooooooooooooooooo.o.....",
"...o.ooXXXXXOoooooooooooooooooO..OooooXXXo.XXXXOoooooooOXXXXooO..Oooooooooooooooooooooooooo.o....",
"....o.oOOOOOooooooo..oooooooooO..OooooXXX.XXXXXoooooooooOXXXooO..Oooooooooo....ooooooooooo.o.....",
"...o.oooooooooooo..XXoooooooooO..OooooOXXXXXXXOooooooooooOOOooO..OooooooooXXXXXoooooooooooo.o....",
"....o.ooooooooo..XXXXoooooooooO..OoooooOXXXXXXooooooooooooooooO..OooooooooOXXXXooooooooooo.o.....",
"...o.ooooooooo.XXXXXOoooooooooO..OooooooOXXXOOooooooooooooooooO..OoooooooooOOXXoooooooooooo.o....",
"....o.ooooooooXXOOOOooooooooooO..OoooooooOXOooooooooooooooooooO..OoooooooooooXX.oooooooooo.o.....",
"...o.ooooooooXXXooooooooooooooO..OooooooooOoooooooooooooooooooO..OoooooooooooOXXooooooooooo.o....",
"....o.oooooooOOOooooooooooooooO..OooooooooooooooooooooooooooooO..OooooooooooooOOoooooooooo.o.....",
"...o.oooooooooooooooooooooooooO..OooooooooooooooooooooooooooooO..Oooooooooooooooooooooooooo.o....",
"....o.ooooooooooooooooooooo+ooO..Ooo+oooooooooooooooooooooo+ooO..Ooo+ooooooooooooooooooooo.o.....",
"...o.ooooooooooooooooooooo+++oO..Oo+++oooooooooooooooooooo+++oO..Oo+++ooooooooooooooooooooo.o....",
"....o.oooooooooooooooooooo.+.oO..Oo.+.oooooooooooooooooooo.+.oO..Oo.+.oooooooooooooooooooo.o.....",
"...o.oooooooooooooooooooooo.ooO..Ooo.oooooooooooooooooooooo.ooO..Ooo.oooooooooooooooooooooo.o....",
"....o.ooooooooooooooooooooooooO..OooooooooooooooooooooooooooooO..Ooooooooooooooooooooooooo.o.....",
"...o.oOOOOOOOOOOOOOOOOOOOOOOOOO..OOOOOOOOOOOOOOOOOOOOOOOOOOOOOO..OOOOOOOOOOOOOOOOOOOOOOOOOo.o....",
".................................................................................................",
".................................................................................................",
"...o.oOOOOOOOOOOOOOOOOOOOOOOOOO..OOOOOOOOOOOOOOOOOOOOOOOOOOOOOO..OOOOOOOOOOOOOOOOOOOOOOOOOo.o....",
"....o.ooooooooooooooooooooooooO..OooooooooooooooooooooooooooooO..Ooooooooooooooooooooooooo.o.....",
"...o.oooooooooooooooooooooo.ooO..Ooo+oooooooooooooooooooooo+ooO..Ooo.oooooooooooooooooooooo.o....",
"....o.oooooooooooooooooooo...oO..Oo+++oooooooooooooooooooo+++oO..Oo...oooooooooooooooooooo.o.....",
"...o.oooooooo.....ooooooooo.ooO..Oo.+.ooooooooooo...oooooo.+.oO..Ooo.oooo...ooooooooooooooo.o....",
"....o.oooooo.XXXXXooooooooooooO..Ooo.ooooooooooooXXX..ooooo.ooO..Ooooooo.XXX.ooooooooooooo.o.....",
"...o.oooooooXXXXOOooooooooooooO..OoooooooooooooooOXXXXooooooooO..Ooooo..XXXXXoooooooooooooo.o....",
"....o.ooooooXXXXooooooooooooooO..OooooooooooooooooOOOOooooooooO..OooooXXXXXXXooooooooooooo.o.....",
"...o.oooooooOOOOooooooooooooooO..OooooooooooooooooooooooooooooO..Oooo.XXXXXXOoooooooooooooo.o....",
"....o.ooooooooooooooooooooooooO..Ooooo....ooooooooooooooooooooO..Ooo.XXXXXXOoooooooooooooo.o.....",
"...o.oooooooooooooooooooooooooO..Oooo.XXXX.ooo...oooooooooooooO..OooXXXXXXOoooooooooooooooo.o....",
"....o.ooooooooooooooooooooooooO..Ooo.XXXXXX.ooXXX..oooo...ooooO..OooOOOOOOoooooooooooooooo.o.....",
"...o.oooooooooooooooooooooooooO..OooXXXXXXXXooXXXXX....XXXooooO..Oooooooooooooooooooooooooo.o....",
"....o.ooooooooooooooooooooooooO..OooXXXXXXXXooXXXXXXXXXXXXooooO..Ooooooooooooooooooooooooo.o.....",
"...o.oooooooooooooooooooooooooO..OooXXXXXXXXooOOXXXXXXXXOOooooO..Oooooooooooooooooooooooooo.o....",
"....o.ooooooooooooooooooooooooO..OooXXXXXXXXooooOXXXXXXOooooooO..Ooooooooooooooooooooooooo.o.....",
"...o.oooooooooooooooooooooooooO..OooOXXXXXXXoooooOOXXXXoooooooO..Ooooooooooooo....ooooooooo.o....",
"....o.ooooooooooooooooooooooooO..OoooOXXXXXXoooooooXXXOoooooooO..OooooooooooooXXXX.ooooooo.o.....",
"...o.oooooooooooooooo.....ooooO..OooooXXXXOOoooooooXXOooooooooO..OooooooooooooOXXXX.ooooooo.o....",
"....o.ooooooooooooo..XXXXXooooO..OooooOOOOoooooooooOOoooooooooO..OoooooooooooooOXXXX.ooooo.o.....",
"...o.ooooooooooooooXXXXXOOooooO..OooooooooooooooooooooooooooooO..OooooooooooooooOXXXX.ooooo.o....",
"....o.oooooooooooooXXXXXooooooO..OooooooooooooooooooooooooooooO..OoooooooooooooooOXXXXoooo.o.....",
"...o.ooooooooooooooOOOOoooooooO..OooooooooooooooooooooooooooooO..OooooooooooooooooOOOOooooo.o....",
"....o.ooooooooooooooooooooooooO..OooooooooooooooooooooooooooooO..Ooooooooooooooooooooooooo.o.....",
"...o.oooooooooooooooooooooooooO..OooooooooooooooooooooooooooooO..Oooooooooooooooooooooooooo.o....",
"....o.o.o.o.o.o.o.o.o.o.o.o.o.o..o.o.o.o.o.o.o.o.o.o.o.o.o.o.o...o.o.o.o.o.o.o.o.o.o.o.o.o.o.....",
"...o.o.o.o.o.o.o.o.o.o.o.o.o.o....o.o.o.o.o.o.o.o.o.o.o.o.o.o.o...o.o.o.o.o.o.o.o.o.o.o.o.o.o....",
"....o.o.o.o.o.o.o.o.o.o.o.o.o.o..o.o.o.o.o.o.o.o.o.o.o.o.o.o.o...o.o.o.o.o.o.o.o.o.o.o.o.o.o.....",
".................................................................................................",
".................................................................................................",
"................................................................................................."
};
