/* XPM */
static char *_4dc916d825744418cca08813448cbb2kSvDt7STTL703ygP[] = {
/* columns rows colors chars-per-pixel */
"32 32 5 1 ",
"  c black",
". c #3299BF",
"X c #D8FF3E",
"o c #FFAE3E",
"O c #FEB03E",
/* pixels */
"                                ",
" .............................. ",
" .............................. ",
" .............................. ",
" .............................. ",
" .............................. ",
" .............................. ",
" .............................. ",
" .............................. ",
" .............................. ",
" .............................. ",
" .............................. ",
" ........................XX.... ",
" ........................XX.... ",
" ........................XX.... ",
" ........................XX.... ",
" ........................oO.... ",
" ........................XX.... ",
" .............................. ",
" .............................. ",
" .............................. ",
" .............................. ",
" .............................. ",
" .............................. ",
" .............................. ",
" .............................. ",
" .............................. ",
" .............................. ",
" .............................. ",
" .............................. ",
" .............................. ",
"                                "
};
