/* XPM */
static char *bb560ce4a574469cccc0f48bb81fee8c8tBG4chyKOxTqCuw[] = {
/* columns rows colors chars-per-pixel */
"64 64 138 2 ",
"   c gray5",
".  c #1E0707",
"X  c #13110F",
"o  c #16110D",
"O  c #18110D",
"+  c #1C130F",
"@  c #131313",
"#  c #1C1817",
"$  c #1A1E1E",
"%  c #1E1E1C",
"&  c #201711",
"*  c #221815",
"=  c #261F1B",
"-  c #2B1E18",
";  c #00261E",
":  c #113115",
">  c #123316",
",  c #133316",
"<  c #153516",
"1  c #133718",
"2  c #13371A",
"3  c #16391A",
"4  c #173B1B",
"5  c #183C1C",
"6  c #183C1E",
"7  c #23201E",
"8  c #33231A",
"9  c #33261F",
"0  c #37261E",
"q  c #002C24",
"w  c #093C23",
"e  c #00352C",
"r  c #232322",
"t  c #262422",
"y  c #2C2622",
"u  c #2B2A27",
"i  c #282D2F",
"p  c #3C2C24",
"a  c #302D2B",
"s  c #342C28",
"d  c #30312D",
"f  c #35312D",
"g  c #37342F",
"h  c #39372C",
"j  c #393734",
"k  c #3C3931",
"l  c #343939",
"z  c #412C20",
"x  c #412C24",
"c  c #4D3527",
"v  c #4D3B26",
"b  c #4D352B",
"n  c #433D34",
"m  c #1F491A",
"M  c #234318",
"N  c #244418",
"B  c #26441A",
"V  c #27451A",
"C  c #26481C",
"Z  c #28491E",
"A  c #2A4C1F",
"S  c #2D5F1B",
"D  c #395B1B",
"F  c #395E1F",
"G  c #3C5F1F",
"H  c #00442C",
"J  c #0A482B",
"K  c #155028",
"L  c #0B5633",
"P  c #2B4C20",
"I  c #2B4D20",
"U  c #305226",
"Y  c #1C733C",
"T  c #3D6223",
"R  c #406B1C",
"E  c #506B18",
"W  c #516D18",
"Q  c #546D18",
"!  c #516E1C",
"~  c #507418",
"^  c #55701C",
"/  c #56731E",
"(  c #58731F",
")  c #58741F",
"_  c #5A761F",
"`  c #5B402F",
"'  c #41403C",
"]  c #406120",
"[  c #406323",
"{  c #406324",
"}  c #416726",
"|  c #436726",
" . c #436927",
".. c #456A27",
"X. c #466A28",
"o. c #486E2C",
"O. c #496F2C",
"+. c #5A7720",
"@. c #3D4545",
"#. c #494540",
"$. c #4A4643",
"%. c #4A4A41",
"&. c #494D46",
"*. c #585444",
"=. c #555048",
"-. c #555149",
";. c #58524E",
":. c #5D594D",
">. c #495254",
",. c #5F5951",
"<. c #5F5F58",
"1. c #656159",
"2. c #67635E",
"3. c #6D6559",
"4. c #706954",
"5. c #776F5E",
"6. c #726B63",
"7. c #737365",
"8. c #70736A",
"9. c #77746B",
"0. c #747A76",
"q. c #867E66",
"w. c #63A216",
"e. c #408B28",
"r. c #8D8672",
"t. c #878078",
"y. c #9E977B",
"u. c #868B80",
"i. c #999183",
"p. c #979891",
"a. c #A7A18B",
"s. c #A2A497",
"d. c #ABAA97",
"f. c #ADB0AB",
"g. c #B4B6AF",
"h. c #BDBDAF",
"j. c #AEB4B0",
"k. c #BEC3BF",
/* pixels */
"b p b b ` ` b ` b b b b p p p p p b p b ` ` ` b ` b b b b b b b b p b p p p p b b b b b p p p p p b p b p p ` b ` b b b b b b b ",
"y.t.9.2.2.` a.k.j.a.a.y.y.a.a.a.y.t.9.2.2.` g.k.j.a.a.y.y.9.a.a.y.t.9.2.2.b a.k.j.g.g.y.y.y.y.y.y.t.9.2.p ` b a.k.h.a.a.a.9.a.a.",
"t.9.t.9.s b h.u.t.t.t.t.y.a.t.t.t.9.t.9.s b h.u.t.t.t.y.u.a.u.t.t.9.t.9.s p h.u.t.t.t.y.u.u.t.t.t.u.$.9.s b ` g.u.t.t.t.y.a.u.t.",
"t.t.9.t.L L L $.t.t.t.u.u.t.t.t.t.t.9.t.>.p a.t.t.t.y.u.t.u.t.t.t.t.9.t.>.b a.t.t.t.y.u.t.t.t.t.&.e.Y $.>.` a.:.t.t.t.u.u.u.t.t.",
"t.t.t.L L L e ' $.t.t.i.2.t.t.t.t.t.t.t.L v v 9.t.t.t.i.2.t.t.t.t.t.t.t.s p a.t.t.a.t.t.u.i.2.2.j Y Y ' s L L L $.t.t.i.2.t.t.t.",
"t.t.t.Y L e H v L $.t.2.2.t.t.t.t.t.t.Y Y Y e a t.i.2.2.2.t.t.t.t.t.t.9.s b 9.t.t.i.2.2.t.2.9.j $.e Y v v e L L L $.t.2.2.t.t.t.",
"2.t.t.j # - e Y Y Y 9.>.>.t.t.2.2.t.t.e.Y e v t j j 2.2.9.t.t.2.2.t.t.2.s b 9.2.2.2.2.9.t.t.j L L v a j # o e L Y $.9.>.>.t.t.2.",
">.>.s s >.8 j H e.e.e.s >.>.>.>.>.v v H $ &   v v v L # >.r r s >.>.s s >.` 2.s s s >.>.>.i Y Y Y e # # i * j # i s s s >.>.>.>.",
"p p b p b b * L v e.w.- p p L L v e L L L H Y Y Y e v L L * p b b b b b b b p p p p p b * e.e.e.H + * b b b b b b b b p b b b p ",
"a.g.a.a.a.a.j v u t t j 9.Y Y Y e k e L Y h e.Y e a e v Y Y i b a.k.h.h.a.a.a.9.9.2.2.2.' w.e.L v v L :.a.a.a.y.y.y.y.t.9.2.2.` ",
"a.u.t.t.t.t.$.v k $.j 9.' e.Y e k d ' u ' ' ' ' u d u e v e.H * g.y.y.y.t.t.y.a.t.t.2.9.t.j X & e Y Y Y &.t.u.u.t.t.t.u.t.9.s b ",
"a.t.t.y.t.t.$.L L L $.' $.u X v *.' ' $.9.9.9.9.' ' ' Y Y Y e - y.t.y.t.u.y.t.t.t.t.t.t.t.2.# - u e Y e.$.t.t.t.t.t.u.t.t.t.>.` ",
"2.t.9.t.t.$.L L L e v v L L v + *.u.9.9.9.9.9.9.>.>.e.e.e.H v - *.&.u.t.u.t.t.t.t.t.9.t.t.9.s p j v u a $.t.t.i.2.2.2.9.t.9.s p ",
"2.9.t.9.t.9.Y L e u L e Y Y Y + j 9.9.9.9.9.9.2.2.>.w.e.L t L v L L $.u.t.t.9.t.t.9.t.t.t.t.>.* L L v ' $.$.t.2.9.2.t.t.9.9.s b ",
"2.2.9.t.9.t.' a a Y Y Y e Y e.- >.2.9.>.>.>.9.>.>.9.i j u Y Y e Y Y Y $.t.2.t.t.t.t.t.t.t.t.# Y Y Y e L L v v L L $.2.9.t.2.s p ",
"2.s s s >.>.>.i e.e.e.H X   i ` >.r s r s s s r s s s s @ Y # 8 H e.e.e.i >.s >.. >.>.s s r i e.Y e Y Y Y e e v Y Y i >.s s >.b ",
"p p p p p b p b w.e.L + 8 - b b b b b b b p b p p p p b b b - - o v e.w.* b p b p p ` b ` b b - - + e.Y e o + H e.e.e.8 b b b b ",
"t.a.y.y.t.9.2.>.2.8 :.0.j.a.a.y.y.9.a.a.y.t.9.2.2.b a.k.j.g.g.*.*.L v L *.t.9.2.2.` b a.k.h.a.a.a.' :.k h a v t L e.w.7.a.a.a.t.",
"t.y.9.9.9.2.9.2.r b h.u.t.t.t.y.u.a.u.t.t.9.t.9.s p h.u.t.t.t.*.Y Y Y e Y Y t.9.s b ` g.u.t.t.t.y.a.u.$.a L L v X + :.&.9.9.9.9.",
"u.9.9.9.9.9.2.9.s p a.t.t.t.y.u.t.u.t.t.t.t.9.t.>.b a.t.t.t.y.&.e.Y e v &.Y t.t.>.` a.a.t.t.t.u.u.u.t.$.$.e Y Y Y - y.9.9.9.9.u.",
">.9.9.9.9.9.9.9.r b 2.9.t.t.t.i.2.t.t.t.t.t.t.t.s p a.t.t.a.t.$.&.g t v L v $.9.s p t.9.t.t.t.i.2.$.v v L L e Y e.- >.2.9.9.9.t.",
">.9.9.9.9.9.9.2.r b 9.t.t.i.2.2.2.t.t.t.t.t.t.9.s b 9.t.t.i.2.2.$.t Y Y Y e v v L L 9.t.9.t.t.2.j v e Y Y Y a u # b 2.9.9.9.9.>.",
"s 9.9.>.>.9.9.>.r b 9.2.2.2.2.2.9.t.t.2.2.t.t.2.s b 9.2.2.2.2.9.$.e.e.e.H u Y Y Y e v 9.t.t.9.>.L v L e Y e.$.j s b 2.>.>.9.2.s ",
"s s s s s s r r s ` 2.s s s >.s >.r r s >.>.s s >.` 2.s s s >.>.i w.e.L $ $ e.Y e o v L L s s Y Y Y e $ $ i s s >.` >.r r r r r ",
"b p b b b b b b b b p b b b p * p b p b b p p b b p b p p p p p p b * - - * 8 * & - e Y Y Y v e.Y e - - - p p p p p b p b b p p ",
"k.g.a.a.a.a.y.y.y.y.t.9.2.2.H H H y.y.y.y.>.y.9.>.>.>.2.2.>.` a.g.a.a.a.a.2.t.t.y.y.a e Y e.L h %.:.a.a.y.y.9.9.>.>.>.2.2.>.` a.",
"t.t.a.u.t.u.u.t.t.t.u.t.9.s e L L L 9.9.9.9.t.y.9.>.2.2.9.r b a.u.t.t.t.t.t.t.t.u.t.&.a L v H H H $.t.9.9.t.y.9.9.>.2.9.>.r ` g.",
"9.t.9.t.t.t.t.t.t.u.t.t.t.>.& e L L t.9.9.9.9.9.9.9.2.9.2.r ` a.t.t.y.t.t.t.t.t.t.t.$.Y Y Y e L L L ' u.t.9.9.9.9.9.9.9.>.r b 9.",
"t.9.t.t.t.t.i.2.2.2.9.t.9.s * v ' j 9.9.9.9.2.9.9.>.2.9.2.s b a.u.t.t.t.t.t.t.2.2.j e.e.e.H + e L L 9.u.9.9.9.9.9.2.9.9.2.r p 2.",
"9.t.9.t.t.t.2.9.2.t.t.9.9.# L L v ' 2.9.2.9.9.9.2.>.9.2.9.r b 9.t.t.t.t.t.t.9.H H H w.e.v X 8 ' &.' u.9.9.2.9.9.2.9.9.9.9.s p 2.",
"2.9.t.9.t.t.t.2.t.2.9.t.2.Y Y Y e H H H 9.2.9.9.2.>.2.2.>.r b 2.9.t.2.2.2.t.L L L e v L t # b 2.9.9.9.9.>.9.9.9.9.9.9.9.9.r p 2.",
"s s s >.s >.>.>.>.>.>.s # e.Y e L e L L L s s s s s r r r s ` >.s >.s >.>.>.L L e v $ X # >.` >.r s r s s r s . s s r r r s p 2.",
"p b b b v v ` b b b b j p * + @ + L e L L b b H L L L b b b L L L - p p p p - H v L + * p p p p b p b p p ` b ` b b b b b b b b ",
"q.9.6.2.` y.k.a.a.a.t.t.a.y.*.s Y Y Y e v L b e Y Y Y n b Y Y Y H H H 2.b a.0.e Y Y Y *.y.y.y.y.t.9.2.p ` b a.k.h.a.a.a.9.a.a.y.",
"0.t.q.s b a.t.9.9.9.9.t.y.9.' e.e.e.H   L Y e a e e.e.e.j e.Y e e L L L * L L v H e.e.e.&.t.t.t.u.t.9.s b ` g.u.t.t.t.y.a.u.t.t.",
"t.9.t.>.b y.9.9.9.9.u.t.9.9.l w.e.L a = Y Y e a d L e.w.$.f a i L e L L Y Y Y e a L e.w.$.t.t.u.t.t.t.>.` a.a.t.t.t.u.u.u.t.t.t.",
"t.t.t.f b >.2.9.9.9.t.>.9.9.9.#.' ' ' @ = e.u $.$.$.;.j >.$.f Y Y Y e # e.Y e a k a a &.=.2.2.2.9.t.9.s p t.9.t.t.t.i.2.t.t.t.t.",
"t.t.9.s b 2.9.9.9.9.>.>.9.9.9.9.9.9.2.r b n $.$.i.2.2.2.t.t.$.e.Y e v # + v L L =.j j $.2.9.2.t.t.9.9.s p 9.t.9.t.t.2.2.t.t.t.t.",
"t.q.2.s b 2.>.>.9.2.s s 9.9.>.>.9.9.>.r b q.2.2.2.2.2.9.q.q.2.j a a v X - v Y Y Y j 9.t.t.2.t.2.9.t.2.s p 2.9.t.t.9.>.>.t.t.2.2.",
">.s s >.` >.r r r r t s s s s s s r r s b r s s s >.a >.r r s >.i X L L v t e Y e.i >.>.>.>.>.>.>.s s >.p 2.s >.s s s >.>.>.>.>.",
"z f x b p b b p p b b p b p p p p p p b p b b p b x ` b x x x p - Y Y Y e + - * * p p p b p b b p p b p b b b b b b b b p b b b ",
"` a.g.a.a.a.a.2.a.9.2.2.2.9.9.2.b a.h.a.a.a.a.2.t.t.p.i.q.9.2.2.e.e.e.H %.:.a.a.9.9.2.2.2.9.9.>.` a.k.g.a.a.a.a.y.y.y.y.t.9.2.2.",
"b a.u.t.t.t.t.t.y.a.t.2.9.9.t.s b a.t.t.t.t.t.t.t.t.u.t.u.t.0.t w.e.L H H H t.y.a.t.t.2.9.t.2.s ` g.t.t.a.u.t.u.u.t.t.t.u.t.9.s ",
"` a.t.t.i.t.t.t.t.t.t.t.9.t.9.s ` d.t.t.y.t.t.t.t.t.t.t.t.t.t.e H H a e L L L t.t.t.t.t.t.t.2.s b 9.9.t.9.t.t.t.t.t.t.u.t.t.t.>.",
"x 2.q.0.q.t.t.t.9.t.t.2.9.t.9.>.b a.u.t.t.t.t.t.q.2.2.2.9.q.L L L e L L e L L t.t.t.t.9.t.t.9.s p 2.t.9.t.t.t.t.i.2.2.2.9.t.9.s ",
"b 2.0.q.0.t.9.t.t.t.9.2.t.9.t.s b 9.t.t.t.t.t.t.9.0.2.t.q.9.L L e e Y Y Y $.t.9.t.t.9.t.t.t.t.>.p 2.9.t.9.t.t.t.2.9.2.t.t.9.9.s ",
"x 2.2.9.t.9.t.9.t.t.9.2.9.9.2.s b 2.9.t.2.2.2.t.2.2.q.2.0.q.2.* - L e Y e.$.2.t.t.t.t.t.t.t.t.s p 2.2.9.t.9.t.t.t.2.t.2.9.t.2.s ",
"b 2.s s a >.>.>.>.>.>.>.s s r >.` 2.s >.s >.>.>.j >.>.>.>.f s i 8 $ v $ X i i s >.. >.>.s s r >.p 2.s s s >.s >.>.>.>.>.>.s s >.",
"x x b p b b b ` b ` b b b b b b b b x b x x x x b b b b b x x x * * L v L L L 8 c ` b b b b b b b b p b b ` ` b ` b b b b p p p ",
"a.i.q.9.2.9.` d.k.h.a.d.i.i.q.a.s.i.q.0.2.2.b a.k.j.j.j.a.i.i.y.*.Y Y Y e Y Y Y :.k.a.i.y.i.2.a.a.t.9.2.>.>.` g.k.j.a.a.y.y.a.a.",
"t.t.0.q.0.s b h.u.t.t.t.i.p.a.u.t.t.9.t.9.f p h.u.t.q.q.p.u.u.q.$.e.Y e u H e.e.e.%.9.9.9.r.a.u.9.9.2.9.2.r b h.u.t.t.t.t.y.a.t.",
"t.t.t.0.q.>.x a.q.t.t.i.u.q.u.q.t.t.t.0.q.>.b s.t.t.q.p.u.t.t.q.t.&.a a a v L e.w.U 9.8.u.t.t.9.9.9.9.2.9.s b a.t.t.t.t.u.u.t.t.",
"t.t.t.t.t.s b 2.0.t.t.q.i.2.q.t.t.t.t.t.q.s p a.t.t.s.q.t.u.p.2.2.2.' a b b L u 9 ' 9.9.q.>.0.9.9.9.9.9.9.r b 2.9.t.t.t.i.2.t.t.",
"t.t.t.t.9.s b 9.t.q.p.2.2.2.t.t.u.q.t.t.0.s b 0.t.t.i.2.2.t.2.0.2.L L L e Y Y Y ' 2.9.9.>.>.9.9.9.9.9.9.2.r b 9.t.t.t.t.2.2.t.t.",
"2.2.t.t.2.r b 9.2.2.2.2.2.9.6.t.2.2.q.q.2.s b q.6.2.2.2.9.t.t.6.Y Y Y e u e Y e.j 9.9.2.y s 9.9.>.>.9.9.>.r b 9.2.2.t.9.>.>.t.t.",
">.>.>.u t >.b 2.s s s >.i d 7 i j >.>.s s >.b 6.f s s >.>.e e e e.Y e H H e * @ r s r E % s s s s s s r r s ` 2.s s s s s >.>.@.",
"0 x b 0 p p - x x b p b p E y b p b b b b b b b b h b b L L L e L o o e L L L b p b p E M p p p c p b b c b p v b p p p p b U c ",
"o.d.5.+.5.9.=.#.;.2.9.9.$.! 6.f.s.a.a.a.a.i.i.i.i.q.9.2.J L e Y Y Y } n q L J 2.;.;.=. .$.z y.1.y.y.r.y.>.9.1.,.t.9.2.@.>.0 ..p.",
"| 4.| +.4.a.| ,.;...q.;.= Q U 6.{ a.u.6.u.8.q.q.6.1.q.0.- W L H e.S ~ f 6.y.r.+.$.1.=.^ 7 R a.1.1./ =.9.;.9.1...9.8.9.;.% 8 O.4.",
"+.5 | +.,.6.| ( 6.;.U ;.= ] , 2.<.X.q.6.X.,.+.<.8...,.A w w L 7 w S R 2 6.,.6.} A 1.,.} 7 G q.*.1./ =.1.=.1.;.{ =.1.=. .= V _ :.",
"( 5 P +.P 6.,.( =.| | 3.= : P ,.=...3 ,.+.3.{ C $.{ X.K Y K e 7 ' f V 6 ,.=.,.+.C =._  .l V  .<.=.T =.I =./ l { l { =.T @ W _ A ",
"P | P | P | ,.P ,.A ( 6 ! ] , P ,.A  .:.! 3 +.A ,.,.P e.Y ; H H H =.A 3 ,.} ,.3 A :./ A T 0 V *./ } =.=...! ' ! A 5 $.! F V  .6 ",
"| 5 | { P 5 ,.P | 6 +.6 Q , { 2 ..A X.I +.6 C 5 #.A X.j @ v e L L C 4 :.4 A | 5 ^ } 4  .M 0 V / } 4 ~ C 3 ! 4 / C 3 4 W > <  .4 ",
"3 B 5 U : 6 D , V : 3 ] 6 6 2 , G < C < U V 3 5 U B > s i v j e L m 3 C 4 [ 4 U W > < U 2 V > > G < U 2 E : > G , F M F M V 4 > "
};
