/* XPM */
static char *db2f3e6c23904c97aed65ec82bd810adatgNpo5HPWUlIqXe[] = {
/* columns rows colors chars-per-pixel */
"32 32 23 1 ",
"  c #EF3BFF",
". c #F047FF",
"X c #F690FF",
"o c #F36CFF",
"O c #F36BFF",
"+ c #F260FF",
"@ c #F154FF",
"# c #F478FF",
"$ c white",
"% c #F9B6FF",
"& c #FDE6FF",
"* c #FEF3FF",
"= c #F585FF",
"- c #F691FF",
"; c #F8AAFF",
": c #F588FF",
"> c #FAC2FF",
", c #FDE7FF",
"< c #FBCFFF",
"1 c #F79DFF",
"2 c #FCDBFF",
"3 c #FAC1FF",
"4 c #FCDAFF",
/* pixels */
"                                ",
"                              .X",
"                     o. .O+@. #$",
"      %$&$*=o$$-$$ o*$*=;$*$$:$$",
"      ;$$>*$@,$+,$ <,1$<@$$><@<$",
"       $$@%$o<$ <$ ,*$,+ $2   1$",
"       $$3&$.<$4$$=;$*1+o$&#  #$",
"       $*$$1 o*$,$<.%$$o1$$&  .*",
"       $4@            .        .",
"      <$$$                      ",
"      +ooo                      ",
"                                ",
"                                ",
"                                ",
"                                ",
"                                ",
"                                ",
"                                ",
"                                ",
"                                ",
"                                ",
"                                ",
"                                ",
"                                ",
"                                ",
"                                ",
"                                ",
"                                ",
"                                ",
"                                ",
"                                ",
"                                "
};
